<svg xmlns="http://www.w3.org/2000/svg" xmlns:xlink="http://www.w3.org/1999/xlink" width="2500" zoomAndPan="magnify" viewBox="0 0 1874.88 881.999991" height="1176" preserveAspectRatio="xMidYMid meet" version="1.0"><defs><filter x="0%" y="0%" width="100%" height="100%" id="eae4f24eb3"><feColorMatrix values="0 0 0 0 1 0 0 0 0 1 0 0 0 0 1 0 0 0 1 0" color-interpolation-filters="sRGB"/></filter><mask id="51e1912cde"><g filter="url(#eae4f24eb3)"><rect x="-187.488" width="2249.856" fill="#000000" y="-88.199999" height="1058.399989" fill-opacity="0.32"/></g></mask><clipPath id="6c5b49c3e0"><path d="M 0 15 L 288 15 L 288 408 L 0 408 Z M 0 15 " clip-rule="nonzero"/></clipPath><clipPath id="f09f63260f"><path d="M 73.53125 0.488281 L 302.878906 132.414062 L 135.910156 422.679688 L -93.4375 290.753906 Z M 73.53125 0.488281 " clip-rule="nonzero"/></clipPath><clipPath id="992191d0a4"><path d="M 109.84375 21.375 L 266.566406 111.527344 C 276.195312 117.066406 283.230469 126.203125 286.125 136.929688 C 289.015625 147.660156 287.53125 159.097656 281.988281 168.726562 L 156.917969 386.15625 C 151.378906 395.789062 142.242188 402.824219 131.511719 405.714844 C 120.785156 408.609375 109.347656 407.121094 99.71875 401.582031 L -57.003906 311.433594 C -66.632812 305.890625 -73.667969 296.753906 -76.5625 286.027344 C -79.453125 275.300781 -77.96875 263.863281 -72.425781 254.230469 L 52.644531 36.800781 C 58.183594 27.171875 67.320312 20.136719 78.050781 17.242188 C 88.777344 14.347656 100.214844 15.835938 109.84375 21.375 Z M 109.84375 21.375 " clip-rule="nonzero"/></clipPath><clipPath id="36a1221e3f"><rect x="0" width="304" y="0" height="423"/></clipPath><clipPath id="3ff46d1a81"><path d="M 104 0.0273438 L 502 0.0273438 L 502 249 L 104 249 Z M 104 0.0273438 " clip-rule="nonzero"/></clipPath><mask id="6593240f85"><g filter="url(#eae4f24eb3)"><rect x="-187.488" width="2249.856" fill="#000000" y="-88.199999" height="1058.399989" fill-opacity="0.32"/></g></mask><clipPath id="6ed940924e"><path d="M 16 0.0273438 L 382 0.0273438 L 382 233 L 16 233 Z M 16 0.0273438 " clip-rule="nonzero"/></clipPath><clipPath id="99e90c7a0c"><path d="M 167.628906 -173.867188 L 396.976562 -41.941406 L 230.007812 248.324219 L 0.660156 116.398438 Z M 167.628906 -173.867188 " clip-rule="nonzero"/></clipPath><clipPath id="0fcd1ebbd8"><path d="M 203.941406 -152.980469 L 360.660156 -62.832031 C 370.292969 -57.292969 377.328125 -48.152344 380.222656 -37.425781 C 383.113281 -26.699219 381.625 -15.261719 376.085938 -5.628906 L 251.015625 211.800781 C 245.476562 221.429688 236.335938 228.464844 225.609375 231.359375 C 214.882812 234.25 203.445312 232.765625 193.816406 227.226562 L 37.09375 137.074219 C 27.464844 131.535156 20.429688 122.398438 17.535156 111.667969 C 14.640625 100.941406 16.128906 89.503906 21.667969 79.875 L 146.738281 -137.554688 C 152.28125 -147.1875 161.417969 -154.222656 172.144531 -157.113281 C 182.875 -160.007812 194.308594 -158.519531 203.941406 -152.980469 Z M 203.941406 -152.980469 " clip-rule="nonzero"/></clipPath><clipPath id="500918698d"><rect x="0" width="398" y="0" height="249"/></clipPath><mask id="87a26124f9"><g filter="url(#eae4f24eb3)"><rect x="-187.488" width="2249.856" fill="#000000" y="-88.199999" height="1058.399989" fill-opacity="0.32"/></g></mask><clipPath id="dea152a3b7"><path d="M 15 16 L 382 16 L 382 408 L 15 408 Z M 15 16 " clip-rule="nonzero"/></clipPath><clipPath id="5c7ace3e64"><path d="M 167.363281 0.710938 L 396.710938 132.636719 L 229.742188 422.902344 L 0.394531 290.980469 Z M 167.363281 0.710938 " clip-rule="nonzero"/></clipPath><clipPath id="00132ff761"><path d="M 203.675781 21.601562 L 360.398438 111.75 C 370.027344 117.289062 377.0625 126.429688 379.957031 137.15625 C 382.847656 147.882812 381.363281 159.320312 375.824219 168.949219 L 250.753906 386.378906 C 245.210938 396.011719 236.074219 403.046875 225.347656 405.941406 C 214.617188 408.832031 203.179688 407.34375 193.550781 401.804688 L 36.832031 311.65625 C 27.199219 306.117188 20.164062 296.976562 17.269531 286.25 C 14.378906 275.523438 15.867188 264.085938 21.40625 254.453125 L 146.476562 37.023438 C 152.015625 27.394531 161.15625 20.359375 171.882812 17.464844 C 182.609375 14.574219 194.046875 16.058594 203.675781 21.601562 Z M 203.675781 21.601562 " clip-rule="nonzero"/></clipPath><clipPath id="e0931424c6"><rect x="0" width="397" y="0" height="423"/></clipPath><clipPath id="c73e73424d"><path d="M 0 631 L 365 631 L 365 881.972656 L 0 881.972656 Z M 0 631 " clip-rule="nonzero"/></clipPath><mask id="1f00683db8"><g filter="url(#eae4f24eb3)"><rect x="-187.488" width="2249.856" fill="#000000" y="-88.199999" height="1058.399989" fill-opacity="0.32"/></g></mask><clipPath id="36a325cc4b"><path d="M 0 16 L 350 16 L 350 250.972656 L 0 250.972656 Z M 0 16 " clip-rule="nonzero"/></clipPath><clipPath id="54eb7cc8d1"><path d="M 135.265625 0.8125 L 364.613281 132.738281 L 197.644531 423.003906 L -31.699219 291.078125 Z M 135.265625 0.8125 " clip-rule="nonzero"/></clipPath><clipPath id="bcd685b02d"><path d="M 171.582031 21.699219 L 328.300781 111.851562 C 337.933594 117.390625 344.96875 126.527344 347.859375 137.257812 C 350.753906 147.984375 349.265625 159.421875 343.726562 169.050781 L 218.65625 386.480469 C 213.117188 396.113281 203.976562 403.148438 193.25 406.039062 C 182.523438 408.933594 171.085938 407.445312 161.453125 401.90625 L 4.734375 311.757812 C -4.898438 306.21875 -11.933594 297.078125 -14.824219 286.351562 C -17.71875 275.625 -16.230469 264.1875 -10.691406 254.554688 L 114.378906 37.125 C 119.917969 27.496094 129.058594 20.460938 139.785156 17.566406 C 150.511719 14.675781 161.949219 16.160156 171.582031 21.699219 Z M 171.582031 21.699219 " clip-rule="nonzero"/></clipPath><clipPath id="59233e1a9a"><rect x="0" width="365" y="0" height="251"/></clipPath><clipPath id="7eaee3fa02"><path d="M 1452 0.0273438 L 1849 0.0273438 L 1849 249 L 1452 249 Z M 1452 0.0273438 " clip-rule="nonzero"/></clipPath><mask id="e5422bfba0"><g filter="url(#eae4f24eb3)"><rect x="-187.488" width="2249.856" fill="#000000" y="-88.199999" height="1058.399989" fill-opacity="0.32"/></g></mask><clipPath id="bbda1e7bf1"><path d="M 15 0.0273438 L 382 0.0273438 L 382 233 L 15 233 Z M 15 0.0273438 " clip-rule="nonzero"/></clipPath><clipPath id="1a4c0a04be"><path d="M 167.21875 -173.867188 L 396.566406 -41.941406 L 229.597656 248.324219 L 0.25 116.398438 Z M 167.21875 -173.867188 " clip-rule="nonzero"/></clipPath><clipPath id="5b25501f4a"><path d="M 203.53125 -152.980469 L 360.25 -62.832031 C 369.882812 -57.292969 376.917969 -48.152344 379.8125 -37.425781 C 382.703125 -26.699219 381.21875 -15.261719 375.675781 -5.628906 L 250.605469 211.800781 C 245.066406 221.429688 235.925781 228.464844 225.199219 231.359375 C 214.472656 234.25 203.035156 232.765625 193.40625 227.226562 L 36.683594 137.074219 C 27.054688 131.535156 20.019531 122.398438 17.125 111.667969 C 14.234375 100.941406 15.71875 89.503906 21.261719 79.875 L 146.332031 -137.554688 C 151.871094 -147.1875 161.007812 -154.222656 171.738281 -157.113281 C 182.464844 -160.007812 193.902344 -158.519531 203.53125 -152.980469 Z M 203.53125 -152.980469 " clip-rule="nonzero"/></clipPath><clipPath id="9a3b590d3b"><rect x="0" width="397" y="0" height="249"/></clipPath><mask id="2f3412d5a3"><g filter="url(#eae4f24eb3)"><rect x="-187.488" width="2249.856" fill="#000000" y="-88.199999" height="1058.399989" fill-opacity="0.32"/></g></mask><clipPath id="515d8a217f"><path d="M 16 15 L 383 15 L 383 408 L 16 408 Z M 16 15 " clip-rule="nonzero"/></clipPath><clipPath id="34f1c55f97"><path d="M 168.121094 0.488281 L 397.46875 132.414062 L 230.5 422.679688 L 1.152344 290.753906 Z M 168.121094 0.488281 " clip-rule="nonzero"/></clipPath><clipPath id="666ccf1687"><path d="M 204.433594 21.375 L 361.15625 111.527344 C 370.785156 117.066406 377.820312 126.203125 380.714844 136.929688 C 383.605469 147.660156 382.121094 159.097656 376.582031 168.726562 L 251.511719 386.15625 C 245.96875 395.789062 236.832031 402.824219 226.105469 405.714844 C 215.375 408.609375 203.9375 407.121094 194.308594 401.582031 L 37.589844 311.433594 C 27.957031 305.890625 20.921875 296.753906 18.027344 286.027344 C 15.136719 275.300781 16.625 263.863281 22.164062 254.230469 L 147.234375 36.800781 C 152.773438 27.171875 161.914062 20.136719 172.640625 17.242188 C 183.367188 14.347656 194.804688 15.835938 204.433594 21.375 Z M 204.433594 21.375 " clip-rule="nonzero"/></clipPath><clipPath id="6facc80b5a"><rect x="0" width="398" y="0" height="423"/></clipPath><clipPath id="bb83ada580"><path d="M 1529 297 L 1874.761719 297 L 1874.761719 720 L 1529 720 Z M 1529 297 " clip-rule="nonzero"/></clipPath><mask id="8eaabbeb95"><g filter="url(#eae4f24eb3)"><rect x="-187.488" width="2249.856" fill="#000000" y="-88.199999" height="1058.399989" fill-opacity="0.32"/></g></mask><clipPath id="0ba2c9bbf7"><path d="M 16 16 L 345.761719 16 L 345.761719 408 L 16 408 Z M 16 16 " clip-rule="nonzero"/></clipPath><clipPath id="725ec20112"><path d="M 168.039062 0.710938 L 397.382812 132.636719 L 230.414062 422.902344 L 1.070312 290.980469 Z M 168.039062 0.710938 " clip-rule="nonzero"/></clipPath><clipPath id="a0e0910c76"><path d="M 204.351562 21.601562 L 361.070312 111.75 C 370.703125 117.289062 377.738281 126.429688 380.628906 137.15625 C 383.523438 147.882812 382.035156 159.320312 376.496094 168.949219 L 251.425781 386.378906 C 245.886719 396.011719 236.746094 403.046875 226.019531 405.941406 C 215.292969 408.832031 203.855469 407.34375 194.222656 401.804688 L 37.503906 311.65625 C 27.871094 306.117188 20.835938 296.976562 17.945312 286.25 C 15.050781 275.523438 16.539062 264.085938 22.078125 254.453125 L 147.148438 37.023438 C 152.6875 27.394531 161.828125 20.359375 172.554688 17.464844 C 183.28125 14.574219 194.71875 16.058594 204.351562 21.601562 Z M 204.351562 21.601562 " clip-rule="nonzero"/></clipPath><clipPath id="a422dc4057"><rect x="0" width="346" y="0" height="423"/></clipPath><clipPath id="b4b005e360"><path d="M 1331 631 L 1729 631 L 1729 881.972656 L 1331 881.972656 Z M 1331 631 " clip-rule="nonzero"/></clipPath><mask id="dea2afd7fa"><g filter="url(#eae4f24eb3)"><rect x="-187.488" width="2249.856" fill="#000000" y="-88.199999" height="1058.399989" fill-opacity="0.32"/></g></mask><clipPath id="94159a77fc"><path d="M 16 16 L 382 16 L 382 250.972656 L 16 250.972656 Z M 16 16 " clip-rule="nonzero"/></clipPath><clipPath id="41771c1e55"><path d="M 167.941406 0.8125 L 397.285156 132.738281 L 230.320312 423.003906 L 0.972656 291.078125 Z M 167.941406 0.8125 " clip-rule="nonzero"/></clipPath><clipPath id="6eab17877b"><path d="M 204.253906 21.699219 L 360.972656 111.851562 C 370.605469 117.390625 377.640625 126.527344 380.53125 137.257812 C 383.425781 147.984375 381.9375 159.421875 376.398438 169.050781 L 251.328125 386.480469 C 245.789062 396.113281 236.648438 403.148438 225.921875 406.039062 C 215.195312 408.933594 203.757812 407.445312 194.125 401.90625 L 37.40625 311.757812 C 27.777344 306.21875 20.738281 297.078125 17.847656 286.351562 C 14.953125 275.625 16.441406 264.1875 21.980469 254.554688 L 147.050781 37.125 C 152.59375 27.496094 161.730469 20.460938 172.457031 17.566406 C 183.1875 14.675781 194.621094 16.160156 204.253906 21.699219 Z M 204.253906 21.699219 " clip-rule="nonzero"/></clipPath><clipPath id="e234a366db"><rect x="0" width="398" y="0" height="251"/></clipPath></defs><g mask="url(#51e1912cde)"><g transform="matrix(1, 0, 0, 1, 0, 153)"><g clip-path="url(#36a1221e3f)"><g clip-path="url(#6c5b49c3e0)"><g clip-path="url(#f09f63260f)"><g clip-path="url(#992191d0a4)"><path fill="#7c3aed" d="M 73.53125 0.488281 L 302.878906 132.414062 L 135.910156 422.679688 L -93.4375 290.753906 Z M 73.53125 0.488281 " fill-opacity="1" fill-rule="nonzero"/></g></g></g></g></g></g><g clip-path="url(#3ff46d1a81)"><g mask="url(#6593240f85)"><g transform="matrix(1, 0, 0, 1, 104, -0.000000000000102068)"><g clip-path="url(#500918698d)"><g clip-path="url(#6ed940924e)"><g clip-path="url(#99e90c7a0c)"><g clip-path="url(#0fcd1ebbd8)"><path fill="#7c3aed" d="M 167.628906 -173.867188 L 396.976562 -41.941406 L 230.007812 248.324219 L 0.660156 116.398438 Z M 167.628906 -173.867188 " fill-opacity="1" fill-rule="nonzero"/></g></g></g></g></g></g></g><g mask="url(#87a26124f9)"><g transform="matrix(1, 0, 0, 1, 166, 297)"><g clip-path="url(#e0931424c6)"><g clip-path="url(#dea152a3b7)"><g clip-path="url(#5c7ace3e64)"><g clip-path="url(#00132ff761)"><path fill="#7c3aed" d="M 167.363281 0.710938 L 396.710938 132.636719 L 229.742188 422.902344 L 0.394531 290.980469 Z M 167.363281 0.710938 " fill-opacity="1" fill-rule="nonzero"/></g></g></g></g></g></g><g clip-path="url(#c73e73424d)"><g mask="url(#1f00683db8)"><g transform="matrix(1, 0, 0, 1, 0, 631)"><g clip-path="url(#59233e1a9a)"><g clip-path="url(#36a325cc4b)"><g clip-path="url(#54eb7cc8d1)"><g clip-path="url(#bcd685b02d)"><path fill="#7c3aed" d="M 135.265625 0.8125 L 364.613281 132.738281 L 197.644531 423.003906 L -31.699219 291.078125 Z M 135.265625 0.8125 " fill-opacity="1" fill-rule="nonzero"/></g></g></g></g></g></g></g><g clip-path="url(#7eaee3fa02)"><g mask="url(#e5422bfba0)"><g transform="matrix(1, 0, 0, 1, 1452, -0.000000000000102068)"><g clip-path="url(#9a3b590d3b)"><g clip-path="url(#bbda1e7bf1)"><g clip-path="url(#1a4c0a04be)"><g clip-path="url(#5b25501f4a)"><path fill="#7c3aed" d="M 167.21875 -173.867188 L 396.566406 -41.941406 L 229.597656 248.324219 L 0.25 116.398438 Z M 167.21875 -173.867188 " fill-opacity="1" fill-rule="nonzero"/></g></g></g></g></g></g></g><g mask="url(#2f3412d5a3)"><g transform="matrix(1, 0, 0, 1, 1253, 153)"><g clip-path="url(#6facc80b5a)"><g clip-path="url(#515d8a217f)"><g clip-path="url(#34f1c55f97)"><g clip-path="url(#666ccf1687)"><path fill="#7c3aed" d="M 168.121094 0.488281 L 397.46875 132.414062 L 230.5 422.679688 L 1.152344 290.753906 Z M 168.121094 0.488281 " fill-opacity="1" fill-rule="nonzero"/></g></g></g></g></g></g><g clip-path="url(#bb83ada580)"><g mask="url(#8eaabbeb95)"><g transform="matrix(1, 0, 0, 1, 1529, 297)"><g clip-path="url(#a422dc4057)"><g clip-path="url(#0ba2c9bbf7)"><g clip-path="url(#725ec20112)"><g clip-path="url(#a0e0910c76)"><path fill="#7c3aed" d="M 168.039062 0.710938 L 397.382812 132.636719 L 230.414062 422.902344 L 1.070312 290.980469 Z M 168.039062 0.710938 " fill-opacity="1" fill-rule="nonzero"/></g></g></g></g></g></g></g><g clip-path="url(#b4b005e360)"><g mask="url(#dea2afd7fa)"><g transform="matrix(1, 0, 0, 1, 1331, 631)"><g clip-path="url(#e234a366db)"><g clip-path="url(#94159a77fc)"><g clip-path="url(#41771c1e55)"><g clip-path="url(#6eab17877b)"><path fill="#7c3aed" d="M 167.941406 0.8125 L 397.285156 132.738281 L 230.320312 423.003906 L 0.972656 291.078125 Z M 167.941406 0.8125 " fill-opacity="1" fill-rule="nonzero"/></g></g></g></g></g></g></g></svg>