<svg xmlns="http://www.w3.org/2000/svg" xmlns:xlink="http://www.w3.org/1999/xlink" width="500" zoomAndPan="magnify" viewBox="0 0 375 374.999991" height="500" preserveAspectRatio="xMidYMid meet" version="1.0"><defs><g/><clipPath id="e34c806924"><path d="M 22.476562 113.230469 L 169.792969 113.230469 L 169.792969 242.867188 L 22.476562 242.867188 Z M 22.476562 113.230469 " clip-rule="nonzero"/></clipPath></defs><g clip-path="url(#e34c806924)"><path fill="#7c3aed" d="M 22.476562 113.230469 L 169.835938 113.230469 L 169.835938 242.867188 L 22.476562 242.867188 Z M 22.476562 113.230469 " fill-opacity="1" fill-rule="nonzero"/></g><g fill="#7c3aed" fill-opacity="1"><g transform="translate(29.135512, 221.377764)"><g><path d="M 19.234375 -51.9375 L 38.59375 -51.9375 L 38.59375 -39.109375 L 19.234375 -39.109375 L 19.234375 -12.828125 L 43.59375 -12.828125 L 43.59375 0 L 5.125 0 L 5.125 -89.765625 L 43.59375 -89.765625 L 43.59375 -76.9375 L 19.234375 -76.9375 Z M 19.234375 -51.9375 "/></g></g></g><g fill="#7c3aed" fill-opacity="1"><g transform="translate(75.29703, 221.377764)"><g><path d="M 26.421875 -16.546875 L 37.1875 -89.765625 L 50.140625 -89.765625 L 36.296875 0 L 15.265625 0 L 1.40625 -89.765625 L 15.640625 -89.765625 Z M 26.421875 -16.546875 "/></g></g></g><g fill="#7c3aed" fill-opacity="1"><g transform="translate(125.818264, 221.377764)"><g><path d="M 19.234375 -51.9375 L 38.59375 -51.9375 L 38.59375 -39.109375 L 19.234375 -39.109375 L 19.234375 -12.828125 L 43.59375 -12.828125 L 43.59375 0 L 5.125 0 L 5.125 -89.765625 L 43.59375 -89.765625 L 43.59375 -76.9375 L 19.234375 -76.9375 Z M 19.234375 -51.9375 "/></g></g></g><g fill="#7c3aed" fill-opacity="1"><g transform="translate(171.979779, 221.377764)"><g><path d="M 17.703125 -65.015625 L 17.703125 0 L 5 0 L 5 -89.765625 L 22.703125 -89.765625 L 37.1875 -36.03125 L 37.1875 -89.765625 L 49.75 -89.765625 L 49.75 0 L 35.265625 0 Z M 17.703125 -65.015625 "/></g></g></g><g fill="#7c3aed" fill-opacity="1"><g transform="translate(225.706662, 221.377764)"><g><path d="M 1.03125 -89.765625 L 44.625 -89.765625 L 44.625 -76.9375 L 29.875 -76.9375 L 29.875 0 L 15.765625 0 L 15.765625 -76.9375 L 1.03125 -76.9375 Z M 1.03125 -89.765625 "/></g></g></g><g fill="#7c3aed" fill-opacity="1"><g transform="translate(270.329462, 221.377764)"><g><path d="M 5.125 -89.765625 L 19.234375 -89.765625 L 19.234375 0 L 5.125 0 Z M 5.125 -89.765625 "/></g></g></g><g fill="#7c3aed" fill-opacity="1"><g transform="translate(293.666664, 221.377764)"><g><path d="M 50.78125 0 L 36.546875 0 L 34.109375 -16.28125 L 16.796875 -16.28125 L 14.359375 0 L 1.40625 0 L 15.765625 -89.765625 L 36.421875 -89.765625 Z M 18.59375 -28.46875 L 32.1875 -28.46875 L 25.390625 -73.859375 Z M 18.59375 -28.46875 "/></g></g></g><g fill="#ffffff" fill-opacity="1"><g transform="translate(25.873441, 221.377764)"><g><path d="M 19.234375 -51.9375 L 38.59375 -51.9375 L 38.59375 -39.109375 L 19.234375 -39.109375 L 19.234375 -12.828125 L 43.59375 -12.828125 L 43.59375 0 L 5.125 0 L 5.125 -89.765625 L 43.59375 -89.765625 L 43.59375 -76.9375 L 19.234375 -76.9375 Z M 19.234375 -51.9375 "/></g></g></g><g fill="#ffffff" fill-opacity="1"><g transform="translate(69.983248, 221.377764)"><g><path d="M 26.421875 -16.546875 L 37.1875 -89.765625 L 50.140625 -89.765625 L 36.296875 0 L 15.265625 0 L 1.40625 -89.765625 L 15.640625 -89.765625 Z M 26.421875 -16.546875 "/></g></g></g><g fill="#ffffff" fill-opacity="1"><g transform="translate(118.452761, 221.377764)"><g><path d="M 19.234375 -51.9375 L 38.59375 -51.9375 L 38.59375 -39.109375 L 19.234375 -39.109375 L 19.234375 -12.828125 L 43.59375 -12.828125 L 43.59375 0 L 5.125 0 L 5.125 -89.765625 L 43.59375 -89.765625 L 43.59375 -76.9375 L 19.234375 -76.9375 Z M 19.234375 -51.9375 "/></g></g></g><g fill="#7c3aed" fill-opacity="1"><g transform="translate(59.05276, 263.937052)"><g><path d="M 4 -8.4375 L 3.53125 -5.796875 L 8.234375 -5.796875 L 7.96875 -4.21875 L 3.25 -4.21875 L 2.78125 -1.578125 L 8 -1.578125 L 7.703125 0 L 0.5 0 L 2.28125 -10 L 9.328125 -10 L 9.046875 -8.4375 Z M 4 -8.4375 "/></g></g></g><g fill="#7c3aed" fill-opacity="1"><g transform="translate(76.686728, 263.937052)"><g><path d="M 5.921875 0 L 3.28125 0 L 1.546875 -10 L 3.71875 -10 L 4.875 -1.53125 L 9.0625 -10 L 11.234375 -10 Z M 5.921875 0 "/></g></g></g><g fill="#7c3aed" fill-opacity="1"><g transform="translate(95.624281, 263.937052)"><g><path d="M 4 -8.4375 L 3.53125 -5.796875 L 8.234375 -5.796875 L 7.96875 -4.21875 L 3.25 -4.21875 L 2.78125 -1.578125 L 8 -1.578125 L 7.703125 0 L 0.5 0 L 2.28125 -10 L 9.328125 -10 L 9.046875 -8.4375 Z M 4 -8.4375 "/></g></g></g><g fill="#7c3aed" fill-opacity="1"><g transform="translate(113.258246, 263.937052)"><g><path d="M 11.046875 -10 L 9.28125 0 L 6.546875 0 L 3.828125 -7.59375 L 2.5 0 L 0.5 0 L 2.28125 -10 L 4.921875 -10 L 7.703125 -2.21875 L 9.046875 -10 Z M 11.046875 -10 "/></g></g></g><g fill="#7c3aed" fill-opacity="1"><g transform="translate(132.96346, 263.937052)"><g><path d="M 9.90625 -8.4375 L 6.53125 -8.4375 L 5.046875 0 L 3.046875 0 L 4.53125 -8.4375 L 1.125 -8.4375 L 1.421875 -10 L 10.203125 -10 Z M 9.90625 -8.4375 "/></g></g></g><g fill="#7c3aed" fill-opacity="1"><g transform="translate(150.756756, 263.937052)"><g/></g></g><g fill="#7c3aed" fill-opacity="1"><g transform="translate(161.829338, 263.937052)"><g><path d="M 6.640625 -10.203125 C 7.585938 -10.203125 8.390625 -10.003906 9.046875 -9.609375 C 9.710938 -9.222656 10.21875 -8.703125 10.5625 -8.046875 C 10.90625 -7.398438 11.078125 -6.671875 11.078125 -5.859375 C 11.078125 -5.015625 10.941406 -4.222656 10.671875 -3.484375 C 10.410156 -2.742188 10.03125 -2.097656 9.53125 -1.546875 C 9.039062 -0.992188 8.441406 -0.5625 7.734375 -0.25 C 7.023438 0.0507812 6.226562 0.203125 5.34375 0.203125 C 4.382812 0.203125 3.570312 0.0078125 2.90625 -0.375 C 2.25 -0.757812 1.75 -1.28125 1.40625 -1.9375 C 1.0625 -2.59375 0.890625 -3.320312 0.890625 -4.125 C 0.890625 -4.988281 1.019531 -5.785156 1.28125 -6.515625 C 1.550781 -7.253906 1.9375 -7.894531 2.4375 -8.4375 C 2.9375 -8.988281 3.535156 -9.421875 4.234375 -9.734375 C 4.941406 -10.046875 5.742188 -10.203125 6.640625 -10.203125 Z M 5.5 -1.296875 C 6.09375 -1.296875 6.601562 -1.429688 7.03125 -1.703125 C 7.457031 -1.972656 7.8125 -2.332031 8.09375 -2.78125 C 8.382812 -3.238281 8.597656 -3.734375 8.734375 -4.265625 C 8.878906 -4.796875 8.953125 -5.316406 8.953125 -5.828125 C 8.953125 -6.679688 8.734375 -7.375 8.296875 -7.90625 C 7.867188 -8.4375 7.257812 -8.703125 6.46875 -8.703125 C 5.882812 -8.703125 5.375 -8.5625 4.9375 -8.28125 C 4.507812 -8.007812 4.15625 -7.648438 3.875 -7.203125 C 3.59375 -6.753906 3.378906 -6.265625 3.234375 -5.734375 C 3.097656 -5.203125 3.03125 -4.679688 3.03125 -4.171875 C 3.03125 -3.316406 3.242188 -2.625 3.671875 -2.09375 C 4.097656 -1.5625 4.707031 -1.296875 5.5 -1.296875 Z M 5.5 -1.296875 "/></g></g></g><g fill="#7c3aed" fill-opacity="1"><g transform="translate(181.911154, 263.937052)"><g><path d="M 9.578125 -7.75 C 9.578125 -6.945312 9.34375 -6.300781 8.875 -5.8125 C 8.40625 -5.320312 7.796875 -4.984375 7.046875 -4.796875 C 7.460938 -4.648438 7.753906 -4.351562 7.921875 -3.90625 C 8.085938 -3.457031 8.171875 -2.75 8.171875 -1.78125 C 8.171875 -1.394531 8.191406 -1.050781 8.234375 -0.75 C 8.285156 -0.457031 8.359375 -0.207031 8.453125 0 L 6.296875 0 C 6.265625 -0.164062 6.238281 -0.34375 6.21875 -0.53125 C 6.207031 -0.726562 6.195312 -0.972656 6.1875 -1.265625 C 6.1875 -1.566406 6.179688 -1.960938 6.171875 -2.453125 C 6.171875 -2.910156 6.09375 -3.273438 5.9375 -3.546875 C 5.78125 -3.828125 5.519531 -3.984375 5.15625 -4.015625 C 5.03125 -4.023438 4.90625 -4.03125 4.78125 -4.03125 C 4.65625 -4.03125 4.523438 -4.03125 4.390625 -4.03125 L 3.21875 -4.03125 L 2.5 0 L 0.5 0 L 2.28125 -10 L 5.921875 -10 C 6.210938 -10 6.46875 -9.992188 6.6875 -9.984375 C 6.90625 -9.972656 7.132812 -9.953125 7.375 -9.921875 C 8 -9.859375 8.519531 -9.648438 8.9375 -9.296875 C 9.363281 -8.953125 9.578125 -8.4375 9.578125 -7.75 Z M 5.6875 -5.53125 C 6.144531 -5.582031 6.539062 -5.738281 6.875 -6 C 7.21875 -6.269531 7.390625 -6.691406 7.390625 -7.265625 C 7.390625 -7.640625 7.285156 -7.910156 7.078125 -8.078125 C 6.878906 -8.242188 6.613281 -8.347656 6.28125 -8.390625 C 6.050781 -8.421875 5.773438 -8.4375 5.453125 -8.4375 L 4 -8.4375 L 3.46875 -5.515625 L 4.859375 -5.515625 C 5.035156 -5.515625 5.1875 -5.515625 5.3125 -5.515625 C 5.4375 -5.515625 5.5625 -5.519531 5.6875 -5.53125 Z M 5.6875 -5.53125 "/></g></g></g><g fill="#7c3aed" fill-opacity="1"><g transform="translate(200.023099, 263.937052)"><g><path d="M 6.84375 -10.203125 C 7.75 -10.203125 8.476562 -10.050781 9.03125 -9.75 C 9.59375 -9.445312 9.992188 -9.035156 10.234375 -8.515625 C 10.484375 -7.992188 10.585938 -7.40625 10.546875 -6.75 L 10.53125 -6.609375 L 8.53125 -6.609375 L 8.53125 -6.75 C 8.519531 -7.4375 8.347656 -7.929688 8.015625 -8.234375 C 7.691406 -8.546875 7.203125 -8.703125 6.546875 -8.703125 C 5.910156 -8.703125 5.320312 -8.507812 4.78125 -8.125 C 4.25 -7.75 3.820312 -7.21875 3.5 -6.53125 C 3.175781 -5.84375 3.015625 -5.035156 3.015625 -4.109375 C 3.015625 -3.179688 3.210938 -2.476562 3.609375 -2 C 4.015625 -1.53125 4.539062 -1.296875 5.1875 -1.296875 C 5.832031 -1.296875 6.398438 -1.492188 6.890625 -1.890625 C 7.390625 -2.285156 7.75 -2.832031 7.96875 -3.53125 L 5.859375 -3.53125 L 6.140625 -5.09375 L 10.171875 -5.09375 L 9.265625 0 L 7.65625 0 L 7.8125 -1.609375 L 7.1875 -0.609375 C 6.550781 -0.0664062 5.691406 0.203125 4.609375 0.203125 C 3.429688 0.203125 2.507812 -0.160156 1.84375 -0.890625 C 1.1875 -1.617188 0.859375 -2.613281 0.859375 -3.875 C 0.859375 -4.84375 1.015625 -5.710938 1.328125 -6.484375 C 1.648438 -7.265625 2.085938 -7.929688 2.640625 -8.484375 C 3.203125 -9.035156 3.84375 -9.457031 4.5625 -9.75 C 5.289062 -10.050781 6.050781 -10.203125 6.84375 -10.203125 Z M 6.84375 -10.203125 "/></g></g></g><g fill="#7c3aed" fill-opacity="1"><g transform="translate(219.931102, 263.937052)"><g><path d="M 6.625 -3.015625 L 3.21875 -3.015625 L 1.703125 0 L -0.453125 0 L 4.859375 -10 L 7.5 -10 L 9.234375 0 L 7.0625 0 Z M 6.390625 -4.59375 L 5.84375 -8.234375 L 4.015625 -4.59375 Z M 6.390625 -4.59375 "/></g></g></g><g fill="#7c3aed" fill-opacity="1"><g transform="translate(238.549997, 263.937052)"><g><path d="M 11.046875 -10 L 9.28125 0 L 6.546875 0 L 3.828125 -7.59375 L 2.5 0 L 0.5 0 L 2.28125 -10 L 4.921875 -10 L 7.703125 -2.21875 L 9.046875 -10 Z M 11.046875 -10 "/></g></g></g><g fill="#7c3aed" fill-opacity="1"><g transform="translate(258.255199, 263.937052)"><g><path d="M 2.5 0 L 0.5 0 L 2.28125 -10 L 4.265625 -10 Z M 2.5 0 "/></g></g></g><g fill="#7c3aed" fill-opacity="1"><g transform="translate(271.181758, 263.937052)"><g><path d="M 9.375 -8.4375 L 2.828125 -1.578125 L 8.234375 -1.578125 L 7.953125 0 L 0.046875 0 L 0.296875 -1.515625 L 6.90625 -8.4375 L 1.921875 -8.4375 L 2.21875 -10 L 9.640625 -10 Z M 9.375 -8.4375 "/></g></g></g><g fill="#7c3aed" fill-opacity="1"><g transform="translate(288.960565, 263.937052)"><g><path d="M 4 -8.4375 L 3.53125 -5.796875 L 8.234375 -5.796875 L 7.96875 -4.21875 L 3.25 -4.21875 L 2.78125 -1.578125 L 8 -1.578125 L 7.703125 0 L 0.5 0 L 2.28125 -10 L 9.328125 -10 L 9.046875 -8.4375 Z M 4 -8.4375 "/></g></g></g><g fill="#7c3aed" fill-opacity="1"><g transform="translate(306.594537, 263.937052)"><g><path d="M 9.578125 -7.75 C 9.578125 -6.945312 9.34375 -6.300781 8.875 -5.8125 C 8.40625 -5.320312 7.796875 -4.984375 7.046875 -4.796875 C 7.460938 -4.648438 7.753906 -4.351562 7.921875 -3.90625 C 8.085938 -3.457031 8.171875 -2.75 8.171875 -1.78125 C 8.171875 -1.394531 8.191406 -1.050781 8.234375 -0.75 C 8.285156 -0.457031 8.359375 -0.207031 8.453125 0 L 6.296875 0 C 6.265625 -0.164062 6.238281 -0.34375 6.21875 -0.53125 C 6.207031 -0.726562 6.195312 -0.972656 6.1875 -1.265625 C 6.1875 -1.566406 6.179688 -1.960938 6.171875 -2.453125 C 6.171875 -2.910156 6.09375 -3.273438 5.9375 -3.546875 C 5.78125 -3.828125 5.519531 -3.984375 5.15625 -4.015625 C 5.03125 -4.023438 4.90625 -4.03125 4.78125 -4.03125 C 4.65625 -4.03125 4.523438 -4.03125 4.390625 -4.03125 L 3.21875 -4.03125 L 2.5 0 L 0.5 0 L 2.28125 -10 L 5.921875 -10 C 6.210938 -10 6.46875 -9.992188 6.6875 -9.984375 C 6.90625 -9.972656 7.132812 -9.953125 7.375 -9.921875 C 8 -9.859375 8.519531 -9.648438 8.9375 -9.296875 C 9.363281 -8.953125 9.578125 -8.4375 9.578125 -7.75 Z M 5.6875 -5.53125 C 6.144531 -5.582031 6.539062 -5.738281 6.875 -6 C 7.21875 -6.269531 7.390625 -6.691406 7.390625 -7.265625 C 7.390625 -7.640625 7.285156 -7.910156 7.078125 -8.078125 C 6.878906 -8.242188 6.613281 -8.347656 6.28125 -8.390625 C 6.050781 -8.421875 5.773438 -8.4375 5.453125 -8.4375 L 4 -8.4375 L 3.46875 -5.515625 L 4.859375 -5.515625 C 5.035156 -5.515625 5.1875 -5.515625 5.3125 -5.515625 C 5.4375 -5.515625 5.5625 -5.519531 5.6875 -5.53125 Z M 5.6875 -5.53125 "/></g></g></g></svg>